<?xml version="1.0" encoding="UTF-8" standalone="no"?>
<!-- Created with Inkscape (http://www.inkscape.org/) -->

<svg
   sodipodi:docname="simple.svg"
   inkscape:version="1.2.2 (b0a8486, 2022-12-01)"
   width="92.90834mm"
   height="87.455505mm"
   viewBox="0 0 92.908341 87.455506"
   version="1.1"
   id="svg5"
   xmlns:inkscape="http://www.inkscape.org/namespaces/inkscape"
   xmlns:sodipodi="http://sodipodi.sourceforge.net/DTD/sodipodi-0.dtd"
   xmlns:xlink="http://www.w3.org/1999/xlink"
   xmlns="http://www.w3.org/2000/svg"
   xmlns:svg="http://www.w3.org/2000/svg">
  <sodipodi:namedview
     id="namedview7"
     pagecolor="#ffffff"
     bordercolor="#666666"
     borderopacity="1.0"
     inkscape:pageshadow="2"
     inkscape:pageopacity="0.0"
     inkscape:pagecheckerboard="0"
     inkscape:document-units="mm"
     showgrid="false"
     inkscape:zoom="1.5037598"
     inkscape:cx="201.16245"
     inkscape:cy="126.68247"
     inkscape:window-width="1846"
     inkscape:window-height="1016"
     inkscape:window-x="74"
     inkscape:window-y="27"
     inkscape:window-maximized="1"
     inkscape:current-layer="layer1"
     fit-margin-top="0"
     fit-margin-left="0"
     fit-margin-right="0"
     fit-margin-bottom="0"
     inkscape:snap-nodes="false"
     inkscape:showpageshadow="2"
     inkscape:deskcolor="#d1d1d1" />
  <defs
     id="defs2">
    <g
       id="g2964">
      <symbol
         overflow="visible"
         id="symbol9750">
        <path
           style="stroke:none;"
           d=""
           id="path4584" />
      </symbol>
      <symbol
         overflow="visible"
         id="symbol4929">
        <path
           style="stroke:none;"
           d="M 5.359375 -5.9375 C 5.21875 -5.796875 4.890625 -5.515625 4.890625 -5.34375 C 4.890625 -5.25 4.984375 -5.140625 5.078125 -5.140625 C 5.171875 -5.140625 5.21875 -5.21875 5.28125 -5.28125 C 5.390625 -5.421875 5.625 -5.703125 6.0625 -5.921875 C 6.125 -5.96875 6.234375 -6.015625 6.234375 -6.125 C 6.234375 -6.234375 6.15625 -6.28125 6.09375 -6.328125 C 5.875 -6.484375 5.765625 -6.65625 5.6875 -6.890625 C 5.65625 -6.984375 5.625 -7.125 5.484375 -7.125 C 5.34375 -7.125 5.28125 -6.984375 5.28125 -6.90625 C 5.28125 -6.859375 5.359375 -6.546875 5.515625 -6.328125 L 2.15625 -6.328125 C 2 -6.328125 1.8125 -6.328125 1.8125 -6.125 C 1.8125 -5.9375 2 -5.9375 2.15625 -5.9375 Z M 5.359375 -5.9375 "
           id="path4821" />
      </symbol>
      <symbol
         overflow="visible"
         id="symbol6400">
        <path
           style="stroke:none;"
           d="M 0.875 -0.59375 C 0.84375 -0.4375 0.78125 -0.203125 0.78125 -0.15625 C 0.78125 0.015625 0.921875 0.109375 1.078125 0.109375 C 1.203125 0.109375 1.375 0.03125 1.453125 -0.171875 C 1.453125 -0.1875 1.578125 -0.65625 1.640625 -0.90625 L 1.859375 -1.796875 C 1.90625 -2.03125 1.96875 -2.25 2.03125 -2.46875 C 2.0625 -2.640625 2.140625 -2.9375 2.15625 -2.96875 C 2.296875 -3.28125 2.828125 -4.1875 3.78125 -4.1875 C 4.234375 -4.1875 4.3125 -3.8125 4.3125 -3.484375 C 4.3125 -2.875 3.828125 -1.59375 3.671875 -1.171875 C 3.578125 -0.9375 3.5625 -0.8125 3.5625 -0.703125 C 3.5625 -0.234375 3.921875 0.109375 4.390625 0.109375 C 5.328125 0.109375 5.6875 -1.34375 5.6875 -1.421875 C 5.6875 -1.53125 5.609375 -1.53125 5.578125 -1.53125 C 5.46875 -1.53125 5.46875 -1.5 5.421875 -1.34375 C 5.21875 -0.671875 4.890625 -0.109375 4.40625 -0.109375 C 4.234375 -0.109375 4.171875 -0.203125 4.171875 -0.4375 C 4.171875 -0.6875 4.25 -0.921875 4.34375 -1.140625 C 4.53125 -1.671875 4.953125 -2.765625 4.953125 -3.34375 C 4.953125 -4 4.53125 -4.40625 3.8125 -4.40625 C 2.90625 -4.40625 2.421875 -3.765625 2.25 -3.53125 C 2.203125 -4.09375 1.796875 -4.40625 1.328125 -4.40625 C 0.875 -4.40625 0.6875 -4.015625 0.59375 -3.84375 C 0.421875 -3.5 0.296875 -2.90625 0.296875 -2.875 C 0.296875 -2.765625 0.390625 -2.765625 0.40625 -2.765625 C 0.515625 -2.765625 0.515625 -2.78125 0.578125 -3 C 0.75 -3.703125 0.953125 -4.1875 1.3125 -4.1875 C 1.5 -4.1875 1.609375 -4.0625 1.609375 -3.734375 C 1.609375 -3.515625 1.578125 -3.40625 1.453125 -2.890625 Z M 0.875 -0.59375 "
           id="path6609" />
      </symbol>
    </g>
    <g
       id="g2138">
      <symbol
         overflow="visible"
         id="symbol3979">
        <path
           style="stroke:none;"
           d=""
           id="path4162" />
      </symbol>
      <symbol
         overflow="visible"
         id="symbol4294">
        <path
           style="stroke:none;"
           d="M 4.5 -4.296875 C 4.5 -4.34375 4.46875 -4.390625 4.40625 -4.390625 C 4.296875 -4.390625 3.890625 -4 3.734375 -3.703125 C 3.515625 -4.25 3.125 -4.40625 2.796875 -4.40625 C 1.625 -4.40625 0.40625 -2.9375 0.40625 -1.484375 C 0.40625 -0.515625 0.984375 0.109375 1.71875 0.109375 C 2.140625 0.109375 2.53125 -0.125 2.890625 -0.484375 C 2.796875 -0.140625 2.46875 1.203125 2.4375 1.296875 C 2.359375 1.578125 2.28125 1.609375 1.71875 1.625 C 1.59375 1.625 1.5 1.625 1.5 1.828125 C 1.5 1.828125 1.5 1.9375 1.625 1.9375 C 1.9375 1.9375 2.296875 1.90625 2.625 1.90625 C 2.953125 1.90625 3.3125 1.9375 3.65625 1.9375 C 3.703125 1.9375 3.828125 1.9375 3.828125 1.734375 C 3.828125 1.625 3.734375 1.625 3.5625 1.625 C 3.09375 1.625 3.09375 1.5625 3.09375 1.46875 C 3.09375 1.390625 3.109375 1.328125 3.125 1.25 Z M 1.75 -0.109375 C 1.140625 -0.109375 1.109375 -0.875 1.109375 -1.046875 C 1.109375 -1.53125 1.390625 -2.609375 1.5625 -3.03125 C 1.875 -3.765625 2.390625 -4.1875 2.796875 -4.1875 C 3.453125 -4.1875 3.59375 -3.375 3.59375 -3.3125 C 3.59375 -3.25 3.046875 -1.0625 3.015625 -1.03125 C 2.859375 -0.75 2.296875 -0.109375 1.75 -0.109375 Z M 1.75 -0.109375 "
           id="path7867" />
      </symbol>
      <symbol
         overflow="visible"
         id="symbol578">
        <path
           style="stroke:none;"
           d=""
           id="path1181" />
      </symbol>
      <symbol
         overflow="visible"
         id="symbol2603">
        <path
           style="stroke:none;"
           d="M 2.328125 -4.4375 C 2.328125 -4.625 2.328125 -4.625 2.125 -4.625 C 1.671875 -4.1875 1.046875 -4.1875 0.765625 -4.1875 L 0.765625 -3.9375 C 0.921875 -3.9375 1.390625 -3.9375 1.765625 -4.125 L 1.765625 -0.578125 C 1.765625 -0.34375 1.765625 -0.25 1.078125 -0.25 L 0.8125 -0.25 L 0.8125 0 C 0.9375 0 1.796875 -0.03125 2.046875 -0.03125 C 2.265625 -0.03125 3.140625 0 3.296875 0 L 3.296875 -0.25 L 3.03125 -0.25 C 2.328125 -0.25 2.328125 -0.34375 2.328125 -0.578125 Z M 2.328125 -4.4375 "
           id="path8414" />
      </symbol>
    </g>
    <clipPath
       id="clipPath5563">
      <path
         clip-rule="nonzero"
         d="m 181,7 h 6 v 6.890625 h -6 z m 0,0"
         id="path8238" />
    </clipPath>
    <clipPath
       id="clipPath8810">
      <path
         clip-rule="nonzero"
         d="m 186,8 h 4 v 5.890625 h -4 z m 0,0"
         id="path266" />
    </clipPath>
    <clipPath
       id="clipPath5438">
      <path
         clip-rule="nonzero"
         d="m 227,14 h 8 v 11.265625 h -8 z m 0,0"
         id="path3892" />
    </clipPath>
    <clipPath
       id="clipPath6508">
      <path
         clip-rule="nonzero"
         d="m 227,14 h 8 v 11.265625 h -8 z m 0,0"
         id="path2808" />
    </clipPath>
    <clipPath
       id="clipPath9790">
      <path
         clip-rule="nonzero"
         d="m 233,16 h 6 v 8.5 h -6 z m 0,0"
         id="path3427" />
    </clipPath>
    <clipPath
       id="clipPath914">
      <path
         clip-rule="nonzero"
         d="m 234,16 h 5 v 8.5 h -5 z m 0,0"
         id="path701" />
    </clipPath>
  </defs>
  <g
     inkscape:label="Layer 1"
     inkscape:groupmode="layer"
     id="layer1"
     transform="translate(-68.5341, -52.2333)">
    <path
       style="fill:none;stroke:#000000;stroke-width:1;stroke-linecap:butt;stroke-linejoin:miter;stroke-miterlimit:4;stroke-dasharray:none;stroke-opacity:1"
       d="M 126.17249,96.800062 92.437544,123.53291"
       id="path859-3"
       sodipodi:nodetypes="cc" />
    <path
       style="fill:none;stroke:#000000;stroke-width:1;stroke-linecap:butt;stroke-linejoin:miter;stroke-miterlimit:4;stroke-dasharray:none;stroke-opacity:1"
       d="m 126.35263,96.886327 9.58463,-28.001581"
       id="path859-3-3"
       sodipodi:nodetypes="cc" />
    <path
       style="fill:none;stroke:#000000;stroke-width:1;stroke-linecap:butt;stroke-linejoin:miter;stroke-miterlimit:4;stroke-dasharray:1, 2;stroke-dashoffset:0;stroke-opacity:1"
       d="M 152.14994,74.759615 126.49118,96.782141"
       id="path859-3-3-6"
       sodipodi:nodetypes="cc" />
    <rect
       style="fill:#b3b3b3;stroke:none;stroke-width:0.663672;stroke-miterlimit:4;stroke-dasharray:none"
       id="rect1435"
       width="48.891476"
       height="16.717196"
       x="68.534081"
       y="122.9716" />
    <path
       style="fill:none;stroke:#000000;stroke-width:0.264583px;stroke-linecap:butt;stroke-linejoin:miter;stroke-opacity:1"
       d="m 98.979213,117.98511 c 0,0 2.835577,0.93477 2.398337,5.08529"
       id="path1718"
       sodipodi:nodetypes="cc" />
    <path
       style="fill:none;stroke:#000000;stroke-width:0.264583px;stroke-linecap:butt;stroke-linejoin:miter;stroke-opacity:1"
       d="m 129.51068,86.672656 c 0,0 2.95373,-0.435674 4.42364,3.470391"
       id="path1718-3"
       sodipodi:nodetypes="cc" />
    <text
       xml:space="preserve"
       style="font-style:normal;font-variant:normal;font-weight:normal;font-stretch:normal;font-size:7.05556px;line-height:1.25;font-family:'Ubuntu Mono';-inkscape-font-specification:'Ubuntu Mono';fill:#000000;fill-opacity:1;stroke:none;stroke-width:0.264583"
       x="138.17189"
       y="66.696205"
       id="text21658-5-5"><tspan
         sodipodi:role="line"
         id="tspan21656-6-3"
         style="font-style:normal;font-variant:normal;font-weight:normal;font-stretch:normal;font-size:7.05556px;font-family:'Ubuntu Mono';-inkscape-font-specification:'Ubuntu Mono';stroke-width:0.264583"
         x="138.17189"
         y="66.696205">C</tspan></text>
    <text
       xml:space="preserve"
       style="font-style:normal;font-variant:normal;font-weight:normal;font-stretch:normal;font-size:7.05556px;line-height:1.25;font-family:'Ubuntu Mono';-inkscape-font-specification:'Ubuntu Mono';fill:#000000;fill-opacity:1;stroke:none;stroke-width:0.264583"
       x="128.16191"
       y="102.03956"
       id="text21658-5-56"><tspan
         sodipodi:role="line"
         id="tspan21656-6-2"
         style="font-style:normal;font-variant:normal;font-weight:normal;font-stretch:normal;font-size:7.05556px;font-family:'Ubuntu Mono';-inkscape-font-specification:'Ubuntu Mono';stroke-width:0.264583"
         x="128.16191"
         y="102.03956">B</tspan></text>
    <text
       xml:space="preserve"
       style="font-style:normal;font-variant:normal;font-weight:normal;font-stretch:normal;font-size:7.05556px;line-height:1.25;font-family:'Ubuntu Mono';-inkscape-font-specification:'Ubuntu Mono';fill:#000000;fill-opacity:1;stroke:none;stroke-width:0.264583"
       x="95.171677"
       y="129.31148"
       id="text21658-5-9"><tspan
         sodipodi:role="line"
         id="tspan21656-6-1"
         style="font-style:normal;font-variant:normal;font-weight:normal;font-stretch:normal;font-size:7.05556px;font-family:'Ubuntu Mono';-inkscape-font-specification:'Ubuntu Mono';stroke-width:0.264583"
         x="95.171677"
         y="129.31148">A</tspan></text>
    <path
       style="fill:none;stroke:#000000;stroke-width:0.429235;stroke-linecap:butt;stroke-linejoin:miter;stroke-miterlimit:4;stroke-dasharray:none;stroke-opacity:1"
       d="m 90.955825,122.18601 c -4.152535,-5.77932 11.546775,-10.50358 12.913225,-19.72806 7.83146,2.62832 16.6764,-12.22348 20.58221,-6.495431"
       id="path26940"
       sodipodi:nodetypes="ccc" />
    <path
       style="fill:none;stroke:#000000;stroke-width:0.429235;stroke-linecap:butt;stroke-linejoin:miter;stroke-miterlimit:4;stroke-dasharray:none;stroke-opacity:1"
       d="m 124.84332,94.632256 c -6.59335,-2.677978 2.55695,-6.999842 -1.20183,-15.533876 8.0276,-1.948718 3.53052,-12.618582 9.88779,-9.85253"
       id="path26940-2"
       sodipodi:nodetypes="ccc" />
    <g
       inkscape:label=""
       transform="translate(115.16, 105.941)"
       id="g3974">
      <g
         id="g8969">
        <g
           style="fill:rgb(0%,0%,0%);fill-opacity:1;"
           id="g864">
          <use
             xlink:href="#symbol4929"
             x="302.743"
             y="93.918"
             id="use5407" />
        </g>
        <g
           style="fill:rgb(0%,0%,0%);fill-opacity:1;"
           id="g566">
          <use
             xlink:href="#symbol6400"
             x="303.01199"
             y="93.918"
             id="use3564" />
        </g>
      </g>
    </g>
    <g
       inkscape:label=""
       transform="translate(117.624, 102.291)"
       id="g4086">
      <g
         id="g6599">
        <g
           style="fill:rgb(0%,0%,0%);fill-opacity:1;"
           id="g1421">
          <use
             xlink:href="#symbol4294"
             x="301.542"
             y="93.918"
             id="use6911" />
        </g>
        <g
           style="fill:rgb(0%,0%,0%);fill-opacity:1;"
           id="g6756">
          <use
             xlink:href="#symbol2603"
             x="305.989"
             y="95.412"
             id="use4607" />
        </g>
      </g>
    </g>
    <g
       inkscape:label=""
       transform="translate(103.35875,118.19597)"
       id="g505">
      <g
         clip-path="url(#clipPath5438)"
         id="g21"
         transform="matrix(0.352778,0,0,0.352778,-80.2985,-5.05328)">
        <g
           fill="#000000"
           fill-opacity="1"
           id="g19">
          <g
             id="use17"
             transform="translate(226.946,21.917999)">
            <path
               d="m 7.59375,-7.421875 c 0,-0.078125 -0.0625,-0.15625 -0.15625,-0.15625 -0.140625,0 -0.8125,0.625 -1.140625,1.21875 C 5.984375,-7.125 5.453125,-7.59375 4.71875,-7.59375 c -1.953125,0 -4.046875,2.515625 -4.046875,5.0625 0,1.703125 1,2.703125 2.171875,2.703125 0.90625,0 1.671875,-0.6875 2.03125,-1.078125 l 0.015625,0.015625 -0.65625,2.578125 -0.15625,0.625 c -0.15625,0.515625 -0.40625,0.515625 -1.21875,0.53125 -0.1875,0 -0.359375,0 -0.359375,0.328125 0,0.109375 0.09375,0.171875 0.21875,0.171875 0.25,0 0.546875,-0.03125 0.796875,-0.03125 h 1.75 c 0.265625,0 0.546875,0.03125 0.8125,0.03125 0.109375,0 0.3125,0 0.3125,-0.328125 C 6.390625,2.84375 6.25,2.84375 5.984375,2.84375 5.1875,2.84375 5.125,2.71875 5.125,2.578125 5.125,2.5 5.140625,2.484375 5.203125,2.25 Z m -2.421875,5.375 C 5.078125,-1.75 5.078125,-1.71875 4.84375,-1.390625 c -0.390625,0.484375 -1.140625,1.21875 -1.953125,1.21875 -0.703125,0 -1.09375,-0.640625 -1.09375,-1.65625 0,-0.9375 0.53125,-2.875 0.859375,-3.59375 C 3.234375,-6.625 4.046875,-7.25 4.71875,-7.25 c 1.140625,0 1.359375,1.40625 1.359375,1.546875 0,0.015625 -0.046875,0.25 -0.0625,0.28125 z m 0,0"
               id="path31" />
          </g>
        </g>
      </g>
      <g
         fill="#000000"
         fill-opacity="1"
         id="g25"
         transform="matrix(0.352778,0,0,0.352778,-80.2985,-5.05328)">
        <g
           id="use23"
           transform="translate(234.42,24.5)">
          <path
             d="m 3.4375,-7.65625 c 0,-0.28125 0,-0.296875 -0.234375,-0.296875 C 2.921875,-7.625 2.3125,-7.1875 1.09375,-7.1875 v 0.34375 c 0.265625,0 0.859375,0 1.53125,-0.296875 v 6.21875 c 0,0.4375 -0.046875,0.578125 -1.09375,0.578125 h -0.375 V 0 c 0.328125,-0.03125 1.484375,-0.03125 1.875,-0.03125 0.40625,0 1.546875,0 1.875,0.03125 v -0.34375 h -0.375 c -1.046875,0 -1.09375,-0.140625 -1.09375,-0.578125 z m 0,0"
             id="path35" />
        </g>
      </g>
    </g>
    <g
       inkscape:label=""
       transform="translate(133.01613,82.254933)"
       id="g641">
      <g
         clip-path="url(#clipPath6508)"
         id="g633"
         transform="matrix(0.352778,0,0,0.352778,-80.2985,-5.05328)">
        <g
           fill="#000000"
           fill-opacity="1"
           id="g631">
          <g
             id="g629"
             transform="translate(226.946,21.917999)">
            <path
               d="m 7.59375,-7.421875 c 0,-0.078125 -0.0625,-0.15625 -0.15625,-0.15625 -0.140625,0 -0.8125,0.625 -1.140625,1.21875 C 5.984375,-7.125 5.453125,-7.59375 4.71875,-7.59375 c -1.953125,0 -4.046875,2.515625 -4.046875,5.0625 0,1.703125 1,2.703125 2.171875,2.703125 0.90625,0 1.671875,-0.6875 2.03125,-1.078125 l 0.015625,0.015625 -0.65625,2.578125 -0.15625,0.625 c -0.15625,0.515625 -0.40625,0.515625 -1.21875,0.53125 -0.1875,0 -0.359375,0 -0.359375,0.328125 0,0.109375 0.09375,0.171875 0.21875,0.171875 0.25,0 0.546875,-0.03125 0.796875,-0.03125 h 1.75 c 0.265625,0 0.546875,0.03125 0.8125,0.03125 0.109375,0 0.3125,0 0.3125,-0.328125 C 6.390625,2.84375 6.25,2.84375 5.984375,2.84375 5.1875,2.84375 5.125,2.71875 5.125,2.578125 5.125,2.5 5.140625,2.484375 5.203125,2.25 Z m -2.421875,5.375 C 5.078125,-1.75 5.078125,-1.71875 4.84375,-1.390625 c -0.390625,0.484375 -1.140625,1.21875 -1.953125,1.21875 -0.703125,0 -1.09375,-0.640625 -1.09375,-1.65625 0,-0.9375 0.53125,-2.875 0.859375,-3.59375 C 3.234375,-6.625 4.046875,-7.25 4.71875,-7.25 c 1.140625,0 1.359375,1.40625 1.359375,1.546875 0,0.015625 -0.046875,0.25 -0.0625,0.28125 z m 0,0"
               id="path627" />
          </g>
        </g>
      </g>
      <g
         fill="#000000"
         fill-opacity="1"
         id="g639"
         transform="matrix(0.352778,0,0,0.352778,-80.2985,-5.05328)">
        <g
           id="g637"
           transform="translate(234.42,24.5)">
          <path
             d="M 5.265625,-2.015625 H 5 c -0.046875,0.203125 -0.140625,0.875 -0.25,1.0625 C 4.65625,-0.84375 3.984375,-0.84375 3.625,-0.84375 H 1.40625 c 0.328125,-0.28125 1.0625,-1.046875 1.359375,-1.328125 1.828125,-1.671875 2.5,-2.296875 2.5,-3.484375 0,-1.375 -1.09375,-2.296875 -2.484375,-2.296875 -1.375,0 -2.203125,1.1875 -2.203125,2.21875 0,0.609375 0.53125,0.609375 0.5625,0.609375 0.265625,0 0.5625,-0.1875 0.5625,-0.5625 0,-0.34375 -0.21875,-0.5625 -0.5625,-0.5625 -0.09375,0 -0.125,0 -0.15625,0.015625 0.21875,-0.8125 0.875,-1.375 1.640625,-1.375 1.015625,0 1.640625,0.859375 1.640625,1.953125 C 4.265625,-4.640625 3.6875,-3.75 3,-2.984375 L 0.578125,-0.28125 V 0 h 4.375 z m 0,0"
             id="path635" />
        </g>
      </g>
    </g>
    <circle
       style="fill:#000000;fill-opacity:1;stroke:none;stroke-width:0.161923;stroke-miterlimit:4;stroke-dasharray:none"
       id="path1557"
       cx="93.669014"
       cy="122.869"
       r="1.769284" />
    <circle
       style="fill:#000000;fill-opacity:1;stroke:none;stroke-width:0.161923;stroke-miterlimit:4;stroke-dasharray:none"
       id="path1557-6"
       cx="126.245"
       cy="97.100006"
       r="1.769284" />
    <circle
       style="fill:#000000;fill-opacity:1;stroke:none;stroke-width:0.161923;stroke-miterlimit:4;stroke-dasharray:none"
       id="path1557-7"
       cx="136.04201"
       cy="68.579933"
       r="1.769284" />
    <g
       inkscape:label=""
       transform="translate(117.88754,75.834153)"
       id="g2482">
      <g
         fill="#000000"
         fill-opacity="1"
         id="g2474"
         transform="matrix(0.352778,0,0,0.352778,-80.7751,-3.51539)">
        <g
           id="g2472"
           transform="translate(228.172,21.917999)">
          <path
             d="m 4.375,-11.515625 c 0.015625,-0.07813 0.046875,-0.171875 0.046875,-0.265625 0,-0.171875 -0.171875,-0.171875 -0.203125,-0.171875 -0.015625,0 -0.640625,0.0625 -0.953125,0.09375 -0.28125,0.01563 -0.546875,0.04687 -0.859375,0.0625 C 2,-11.765625 1.875,-11.75 1.875,-11.4375 c 0,0.171875 0.171875,0.171875 0.34375,0.171875 0.875,0 0.875,0.15625 0.875,0.328125 0,0.07813 0,0.109375 -0.078125,0.421875 L 0.875,-1.984375 c -0.046875,0.1875 -0.078125,0.328125 -0.078125,0.609375 0,0.859375 0.625,1.546875 1.515625,1.546875 0.5625,0 0.9375,-0.375 1.21875,-0.90625 C 3.828125,-1.3125 4.0625,-2.390625 4.0625,-2.46875 4.0625,-2.546875 4,-2.625 3.890625,-2.625 c -0.15625,0 -0.171875,0.09375 -0.234375,0.359375 -0.3125,1.1875 -0.625,2.09375 -1.3125,2.09375 -0.515625,0 -0.515625,-0.546875 -0.515625,-0.796875 0,-0.0625 0,-0.421875 0.125,-0.90625 z m 0,0"
             id="path2470" />
        </g>
      </g>
      <g
         clip-path="url(#clipPath9790)"
         id="g2480"
         transform="matrix(0.352778,0,0,0.352778,-80.7751,-3.51539)">
        <g
           fill="#000000"
           fill-opacity="1"
           id="g23">
          <g
             id="use21"
             transform="translate(233.19299,24.5)">
            <path
               d="M 5.265625,-2.015625 H 5 c -0.046875,0.203125 -0.140625,0.875 -0.25,1.0625 C 4.65625,-0.84375 3.984375,-0.84375 3.625,-0.84375 H 1.40625 c 0.328125,-0.28125 1.0625,-1.046875 1.359375,-1.328125 1.828125,-1.671875 2.5,-2.296875 2.5,-3.484375 0,-1.375 -1.09375,-2.296875 -2.484375,-2.296875 -1.375,0 -2.203125,1.1875 -2.203125,2.21875 0,0.609375 0.53125,0.609375 0.5625,0.609375 0.265625,0 0.5625,-0.1875 0.5625,-0.5625 0,-0.34375 -0.21875,-0.5625 -0.5625,-0.5625 -0.09375,0 -0.125,0 -0.15625,0.015625 0.21875,-0.8125 0.875,-1.375 1.640625,-1.375 1.015625,0 1.640625,0.859375 1.640625,1.953125 C 4.265625,-4.640625 3.6875,-3.75 3,-2.984375 L 0.578125,-0.28125 V 0 h 4.375 z m 0,0"
               id="path2476" />
          </g>
        </g>
      </g>
    </g>
    <g
       inkscape:label=""
       transform="translate(99.469169,95.927949)"
       id="g2674">
      <g
         fill="#000000"
         fill-opacity="1"
         id="g2664"
         transform="matrix(0.352778,0,0,0.352778,-80.7751,-3.51539)">
        <g
           id="g2662"
           transform="translate(228.172,21.917999)">
          <path
             d="m 4.375,-11.515625 c 0.015625,-0.07813 0.046875,-0.171875 0.046875,-0.265625 0,-0.171875 -0.171875,-0.171875 -0.203125,-0.171875 -0.015625,0 -0.640625,0.0625 -0.953125,0.09375 -0.28125,0.01563 -0.546875,0.04687 -0.859375,0.0625 C 2,-11.765625 1.875,-11.75 1.875,-11.4375 c 0,0.171875 0.171875,0.171875 0.34375,0.171875 0.875,0 0.875,0.15625 0.875,0.328125 0,0.07813 0,0.109375 -0.078125,0.421875 L 0.875,-1.984375 c -0.046875,0.1875 -0.078125,0.328125 -0.078125,0.609375 0,0.859375 0.625,1.546875 1.515625,1.546875 0.5625,0 0.9375,-0.375 1.21875,-0.90625 C 3.828125,-1.3125 4.0625,-2.390625 4.0625,-2.46875 4.0625,-2.546875 4,-2.625 3.890625,-2.625 c -0.15625,0 -0.171875,0.09375 -0.234375,0.359375 -0.3125,1.1875 -0.625,2.09375 -1.3125,2.09375 -0.515625,0 -0.515625,-0.546875 -0.515625,-0.796875 0,-0.0625 0,-0.421875 0.125,-0.90625 z m 0,0"
             id="path2660" />
        </g>
      </g>
      <g
         clip-path="url(#clipPath914)"
         id="g2672"
         transform="matrix(0.352778,0,0,0.352778,-80.7751,-3.51539)">
        <g
           fill="#000000"
           fill-opacity="1"
           id="g2670">
          <g
             id="g2668"
             transform="translate(233.19299,24.5)">
            <path
               d="m 3.4375,-7.65625 c 0,-0.28125 0,-0.296875 -0.234375,-0.296875 C 2.921875,-7.625 2.3125,-7.1875 1.09375,-7.1875 v 0.34375 c 0.265625,0 0.859375,0 1.53125,-0.296875 v 6.21875 c 0,0.4375 -0.046875,0.578125 -1.09375,0.578125 h -0.375 V 0 c 0.328125,-0.03125 1.484375,-0.03125 1.875,-0.03125 0.40625,0 1.546875,0 1.875,0.03125 v -0.34375 h -0.375 c -1.046875,0 -1.09375,-0.140625 -1.09375,-0.578125 z m 0,0"
               id="path2666" />
          </g>
        </g>
      </g>
    </g>
  </g>
</svg>
